<svg width="55" height="55" viewBox="0 0 55 55" fill="none" xmlns="http://www.w3.org/2000/svg">
<g clip-path="url(#clip0_2103_9)">
<path d="M19.0199 24.9521C18.4056 24.5033 18.0377 23.897 17.9162 23.1331C17.7948 22.3692 17.9562 21.6769 18.4004 21.0563C18.8447 20.4357 19.4448 20.064 20.201 19.9413C20.9571 19.8186 21.6423 19.9816 22.2566 20.4304C22.8709 20.8792 23.2388 21.4856 23.3603 22.2495C23.4818 23.0134 23.3204 23.7056 22.8761 24.3263C22.4319 24.9469 21.8317 25.3186 21.0756 25.4413C20.3195 25.564 19.6342 25.401 19.0199 24.9521ZM14.9265 30.6708C12.7325 29.0679 11.4229 26.9296 10.9977 24.256C10.5726 21.5824 11.1533 19.1373 12.7399 16.9208C14.3265 14.7043 16.443 13.3812 19.0895 12.9517C21.7359 12.5222 24.1561 13.1089 26.3501 14.7118C27.9297 15.8659 29.0422 17.2525 29.6875 18.8717C30.3328 20.4909 30.4482 22.3137 30.0336 24.34L41.7495 32.8995L42.779 39.3735L33.7455 39.2519L32.2688 36.2014L26.8093 37.2152L26.8093 32.4153L25.1309 31.189C23.6305 32.1182 21.9879 32.5807 20.2033 32.5765C18.4187 32.5723 16.6597 31.9371 14.9265 30.6708ZM16.3544 28.6759C17.6269 29.6056 19.1061 30.0365 20.792 29.9685C22.4779 29.9006 23.9505 29.3139 25.2096 28.2084L28.9613 30.9494L29.6675 33.7439L34.0629 33.7651L35.3328 36.9418L39.9634 37.2152L39.4988 34.2933L27.2563 25.3491C27.8815 23.9154 27.9889 22.3651 27.5783 20.698C27.1678 19.0309 26.2824 17.7005 24.9221 16.7067C23.2766 15.5045 21.4615 15.0644 19.4767 15.3866C17.4919 15.7087 15.9045 16.701 14.7145 18.3634C13.5246 20.0258 13.089 21.8596 13.4079 23.8648C13.7268 25.87 14.7089 27.4737 16.3544 28.6759Z" fill="#2E709E"/>
</g>
<defs>
<clipPath id="clip0_2103_9">
<rect width="39.127" height="39.2525" fill="white" transform="matrix(0.807459 0.589924 -0.582058 0.813147 22.8472 0)"/>
</clipPath>
</defs>
</svg>
